<svg xmlns="http://www.w3.org/2000/svg" version="1.1" xmlns:xlink="http://www.w3.org/1999/xlink" width="200" height="200"><svg xmlns="http://www.w3.org/2000/svg" version="1.1" xmlns:xlink="http://www.w3.org/1999/xlink" viewBox="0 0 200 200"><rect width="200" height="200" fill="url('#gradient')"></rect><defs><linearGradient id="SvgjsLinearGradient1001" gradientTransform="rotate(280 0.5 0.5)"><stop offset="0%" stop-color="#79ca9f"></stop><stop offset="100%" stop-color="#fcfbf3"></stop></linearGradient></defs><g><g fill="#2e2f30" transform="matrix(9.564835164835165,0,0,9.564835164835165,36.20262385908064,168.0053541655069)" stroke="#1d7d80" stroke-width="0.2"><path d="M6.69-4.82L4.50-4.82L4.50 0L1.07 0L1.07-14.22L6.75-14.22Q8.38-14.22 9.63-13.62Q10.89-13.02 11.58-11.91Q12.27-10.80 12.27-9.39L12.27-9.39Q12.27-7.31 10.78-6.07Q9.29-4.82 6.69-4.82L6.69-4.82ZM4.50-11.57L4.50-7.47L6.75-7.47Q7.74-7.47 8.27-7.97Q8.79-8.47 8.79-9.38L8.79-9.38Q8.79-10.37 8.25-10.97Q7.71-11.56 6.79-11.57L6.79-11.57L4.50-11.57Z"></path></g></g></svg><style>@media (prefers-color-scheme: light) { :root { filter: none; } }
@media (prefers-color-scheme: dark) { :root { filter: none; } }
</style></svg>